<svg width="33" height="46" viewBox="0 0 33 46" fill="none" xmlns="http://www.w3.org/2000/svg">
<path fill-rule="evenodd" clip-rule="evenodd" d="M15.9943 1.91667C14.1758 1.91667 12.5794 3.14687 12.0887 4.92667C11.6117 6.65639 10.0605 7.8522 8.29281 7.8522H8.22794C7.32873 7.8522 6.6 8.59294 6.6 9.50683V11.5H26.4V9.72469C26.4 8.69051 25.5752 7.8522 24.5578 7.8522H24.2979C22.5305 7.8522 20.979 6.65639 20.5021 4.92667C20.0113 3.14687 18.4151 1.91667 16.5966 1.91667H15.9943ZM10.2729 4.40936C10.9918 1.80226 13.3303 0 15.9943 0H16.5966C19.2607 0 21.599 1.80226 22.3178 4.40936C22.5666 5.31177 23.376 5.93553 24.2979 5.93553H24.5578C26.2405 5.93553 27.6629 7.06841 28.1265 8.625H29.2286C31.3115 8.625 33 10.3412 33 12.4583V42.1667C33 44.2838 31.3115 46 29.2286 46H3.77143C1.68844 46 0 44.2838 0 42.1667V12.4583C0 10.3412 1.68844 8.625 3.77143 8.625H4.82224C5.20853 7.07917 6.58689 5.93553 8.22794 5.93553H8.29281C9.21492 5.93553 10.0241 5.31177 10.2729 4.40936ZM28.2857 13.4167V10.5417H29.2286C30.27 10.5417 31.1143 11.3999 31.1143 12.4583V42.1667C31.1143 43.2251 30.27 44.0833 29.2286 44.0833H3.77143C2.73005 44.0833 1.88571 43.2251 1.88571 42.1667V12.4583C1.88571 11.3999 2.73005 10.5417 3.77143 10.5417H4.71429V13.4167H28.2857Z" fill="currentColor"/>
<path d="M16.4429 6.45833C16.9635 6.45833 17.3857 6.02924 17.3857 5.5C17.3857 4.97076 16.9635 4.54167 16.4429 4.54167C15.9222 4.54167 15.5 4.97076 15.5 5.5C15.5 6.02924 15.9222 6.45833 16.4429 6.45833Z" fill="currentColor"/>
<path fill-rule="evenodd" clip-rule="evenodd" d="M10 22H8V25H5V27H8V30H10V27H13V25H10V22Z" fill="currentColor"/>
<path d="M23 23C23 25.2091 21.2091 27 19 27C16.7909 27 15 25.2091 15 23C15 20.7909 16.7909 19 19 19C21.2091 19 23 20.7909 23 23Z" fill="currentColor"/>
<path fill-rule="evenodd" clip-rule="evenodd" d="M10 35C10 31.6863 12.6863 29 16 29L19 38L22 29C25.3137 29 28 31.6863 28 35C28 35.0364 27.9997 35.0728 27.999 35.1091H28V41H22.0108L22 41H16L15.9892 41H10V35.1091H10.001C10.0003 35.0728 10 35.0364 10 35Z" fill="currentColor"/>
<rect x="18" y="29" width="2" height="9" fill="currentColor"/>
</svg>
