<svg width="48" height="48" viewBox="0 0 48 48" fill="none" xmlns="http://www.w3.org/2000/svg">
<path fill-rule="evenodd" clip-rule="evenodd" d="M13.1278 0.661358C12.2922 1.12509 11.6648 1.8131 11.2055 2.67068C11.0963 2.87452 10.978 3.11634 10.8714 3.33446C10.81 3.46001 10.7524 3.57772 10.7027 3.67581C10.5451 3.98627 10.4019 4.23547 10.2456 4.4362C9.97599 4.78248 9.66715 5 9.06087 5C8.07437 5 7.09286 5.34131 6.34254 5.92497C5.97223 6.21302 5.64149 6.57536 5.40094 6.9996H5C3.34315 6.9996 2 8.34275 2 9.9996V33.9996C2 35.6565 3.34315 36.9996 5 36.9996H18.6385C18.9771 37.4671 19.357 37.9139 19.7782 38.3351C23.4296 41.9865 29.0095 42.5342 33.2394 39.9782L39.8428 46.5816C40.9447 47.6833 42.7312 47.6831 43.833 46.5813C44.935 45.4794 44.935 43.6928 43.833 42.5909L37.163 35.921C39.5044 31.7329 38.8949 26.3391 35.3345 22.7788C33.5546 20.9989 31.3166 19.9565 29 19.6515V9.9996C29 8.34275 27.6569 6.9996 26 6.9996H25.633C24.9808 5.75511 23.5642 5 22.2452 5C21.78 5 21.533 4.82668 21.2877 4.47667C21.1468 4.27559 21.0172 4.02498 20.8747 3.7129C20.8293 3.6135 20.7772 3.49519 20.7218 3.36939L20.7218 3.36921C20.6261 3.15181 20.5206 2.91201 20.4225 2.7086C20.0134 1.85992 19.447 1.16179 18.6732 0.684552C17.9014 0.208612 17.0005 0 16 0C14.9204 0 13.9558 0.201758 13.1278 0.661358ZM9.12026 6.9996C9.10057 6.99987 9.08077 7 9.06087 7C8.51694 7 7.96801 7.1944 7.57051 7.5036C7.17576 7.81066 7 8.16759 7 8.5V8.9996V10H24V8.9996V8.5C24 7.75563 23.2122 7 22.2452 7L22.203 6.99977L22.1902 6.9996C20.9651 6.98188 20.1741 6.37248 19.6499 5.6245C19.4022 5.27102 19.2123 4.8872 19.0554 4.54378C18.9822 4.38338 18.921 4.24382 18.8636 4.11255L18.8633 4.11203L18.8633 4.11195C18.7832 3.92896 18.7101 3.762 18.621 3.57712C18.3414 2.99722 18.0077 2.62392 17.6234 2.38688C17.2369 2.14853 16.7212 2 16 2C15.1665 2 14.5572 2.15538 14.0983 2.41007C13.6469 2.66062 13.2743 3.04404 12.9685 3.61504C12.8696 3.79958 12.7891 3.96503 12.7005 4.14717C12.6366 4.27858 12.5685 4.41867 12.4862 4.58087C12.3111 4.92591 12.0992 5.31114 11.8236 5.66498C11.2387 6.4162 10.3938 6.98253 9.12026 6.9996ZM4 9.9996C4 9.44732 4.44772 8.9996 5 8.9996V12H26V8.9996C26.5523 8.9996 27 9.44732 27 9.9996V19.5709C25.2636 19.6583 23.5439 20.1551 21.9981 21.0614C21.9994 21.041 22 21.0204 22 20.9996C22 20.4473 21.5523 19.9996 21 19.9996H11C10.4477 19.9996 10 20.4473 10 20.9996C10 21.5519 10.4477 21.9996 11 21.9996H20.6432C20.3447 22.2414 20.0558 22.5011 19.7782 22.7788C18.9762 23.5807 18.3239 24.4758 17.8214 25.4291C17.6407 25.1695 17.3402 24.9996 17 24.9996H11C10.4477 24.9996 10 25.4473 10 25.9996C10 26.5519 10.4477 26.9996 11 26.9996H17C17.0505 26.9996 17.1001 26.9959 17.1486 26.9886C16.258 29.5926 16.3718 32.4641 17.4902 34.9996H5C4.44772 34.9996 4 34.5519 4 33.9996V9.9996ZM21.1924 24.193C22.8082 22.5772 24.8855 21.7042 27 21.574C27.0415 21.5715 27.0831 21.5692 27.1246 21.5672C27.7509 21.5373 28.3797 21.5725 29 21.6728C30.8014 21.964 32.5314 22.804 33.9203 24.193C37.435 27.7077 37.435 33.4062 33.9203 36.9209C30.4056 40.4356 24.7071 40.4356 21.1924 36.9209C21.1375 36.866 21.0834 36.8105 21.0302 36.7546C20.5153 36.2129 20.0808 35.6229 19.7267 34.9996C17.7755 31.5655 18.2641 27.1213 21.1924 24.193ZM7 15.9996C7 15.4473 7.44772 14.9996 8 14.9996C8.55228 14.9996 9 15.4473 9 15.9996C9 16.5519 8.55228 16.9996 8 16.9996C7.44772 16.9996 7 16.5519 7 15.9996ZM24 15.9996C24 16.5519 23.5523 16.9996 23 16.9996H11C10.4477 16.9996 10 16.5519 10 15.9996C10 15.4473 10.4477 14.9996 11 14.9996H23C23.5523 14.9996 24 15.4473 24 15.9996ZM7 20.9996C7 20.4473 7.44772 19.9996 8 19.9996C8.55228 19.9996 9 20.4473 9 20.9996C9 21.5519 8.55228 21.9996 8 21.9996C7.44772 21.9996 7 21.5519 7 20.9996ZM7 25.9996C7 25.4473 7.44772 24.9996 8 24.9996C8.55228 24.9996 9 25.4473 9 25.9996C9 26.5519 8.55228 26.9996 8 26.9996C7.44772 26.9996 7 26.5519 7 25.9996ZM35.3345 38.3351C35.5729 38.0968 35.798 37.8502 36.0099 37.5963L42.4189 44.0052C42.7397 44.3261 42.7397 44.8462 42.4188 45.167C42.098 45.4879 41.5777 45.488 41.2568 45.1671L34.8666 38.7769C35.0258 38.6351 35.1818 38.4878 35.3345 38.3351ZM27.014 33.4723C26.942 33.4723 26.882 33.4483 26.834 33.4003C26.798 33.3403 26.78 33.2623 26.78 33.1663V30.2503C26.78 30.0463 26.876 29.9203 27.068 29.8723L27.752 29.6923C28.388 29.5243 28.862 29.2903 29.174 28.9903C29.486 28.6783 29.642 28.3243 29.642 27.9283C29.642 27.4363 29.486 27.0583 29.174 26.7943C28.874 26.5183 28.436 26.3803 27.86 26.3803C27.356 26.3803 26.906 26.5003 26.51 26.7403C26.126 26.9683 25.826 27.2863 25.61 27.6943C25.538 27.8383 25.448 27.9103 25.34 27.9103C25.268 27.9103 25.214 27.8983 25.178 27.8743L23.936 27.3523C23.72 27.2683 23.648 27.1303 23.72 26.9383C24.02 26.0863 24.56 25.4143 25.34 24.9223C26.12 24.4303 26.966 24.1843 27.878 24.1843C28.646 24.1843 29.324 24.3403 29.912 24.6523C30.512 24.9523 30.974 25.3783 31.298 25.9303C31.622 26.4703 31.784 27.0823 31.784 27.7663C31.784 28.5943 31.58 29.2843 31.172 29.8363C30.764 30.3763 30.242 30.7603 29.606 30.9883L29.066 31.1683V32.5363C29.066 32.7163 28.982 32.8423 28.814 32.9143L27.158 33.4363C27.086 33.4603 27.038 33.4723 27.014 33.4723ZM27.068 37.0003C26.852 37.0003 26.744 36.8923 26.744 36.6763V35.0563C26.744 34.8283 26.852 34.7143 27.068 34.7143H28.688C28.904 34.7143 29.012 34.8283 29.012 35.0563V36.6763C29.012 36.8923 28.904 37.0003 28.688 37.0003H27.068ZM15.8 6C16.3523 6 16.8 5.55228 16.8 5C16.8 4.44772 16.3523 4 15.8 4C15.2477 4 14.8 4.44772 14.8 5C14.8 5.55228 15.2477 6 15.8 6Z" fill="currentColor"/>
</svg>
