<svg width="48" height="48" viewBox="0 0 48 48" fill="none" xmlns="http://www.w3.org/2000/svg">
<path d="M24 0L0 28.5405L24 48L48 28.5405L24 0Z" fill="#FF9200"/>
<path fill-rule="evenodd" clip-rule="evenodd" d="M24.84 17.591C25.1194 17.5277 25.3871 17.4336 25.6393 17.3124L33.0456 26.139C32.9134 26.5246 32.8417 26.9382 32.8417 27.3686C32.8417 27.8681 32.9383 28.345 33.1139 28.7817L26.2883 34.4532C25.866 34.1328 25.3744 33.8989 24.84 33.7779V17.591ZM36.6312 31.1581C35.7897 31.1581 35.0123 30.8838 34.3834 30.4198L27.5362 36.1092C27.6998 36.5326 27.7894 36.9928 27.7894 37.474C27.7894 39.5668 26.0928 41.2634 23.9999 41.2634C21.9071 41.2634 20.2105 39.5668 20.2105 37.474C20.2105 37.0994 20.2648 36.7376 20.366 36.3959L12.7746 30.419C12.1456 30.8835 11.3678 31.1581 10.5258 31.1581C8.43293 31.1581 6.73633 29.4615 6.73633 27.3686C6.73633 25.2757 8.43293 23.5791 10.5258 23.5791C11.2665 23.5791 11.9575 23.7916 12.5412 24.1589L20.4906 15.3275C20.31 14.8855 20.2105 14.4019 20.2105 13.8949C20.2105 11.8021 21.9071 10.1055 23.9999 10.1055C26.0928 10.1055 27.7894 11.8021 27.7894 13.8949C27.7894 14.4739 27.6596 15.0225 27.4275 15.5133L34.6594 24.1319C35.2338 23.7812 35.9089 23.5791 36.6312 23.5791C38.724 23.5791 40.4206 25.2757 40.4206 27.3686C40.4206 29.4615 38.724 31.1581 36.6312 31.1581ZM14.1192 28.575L21.6479 34.5026C21.9719 34.2458 22.3389 34.0408 22.7363 33.9003V17.4686C22.5256 17.3941 22.3234 17.3015 22.1316 17.1926L14.1023 26.1129C14.2402 26.5059 14.3153 26.9285 14.3153 27.3686C14.3153 27.7904 14.2464 28.1961 14.1192 28.575Z" fill="white"/>
</svg>
